<svg width="36" height="36" viewBox="0 0 36 36" fill="none" xmlns="http://www.w3.org/2000/svg">
<rect width="36" height="36" rx="4" fill="#C4302B"/>
<path d="M10.5 15.5001C10.5 14.616 10.8512 13.7682 11.4763 13.1431C12.1014 12.5179 12.9493 12.1667 13.8333 12.1667H22.1667C23.0507 12.1667 23.8986 12.5179 24.5237 13.1431C25.1488 13.7682 25.5 14.616 25.5 15.5001V20.5001C25.5 21.3841 25.1488 22.232 24.5237 22.8571C23.8986 23.4822 23.0507 23.8334 22.1667 23.8334H13.8333C12.9493 23.8334 12.1014 23.4822 11.4763 22.8571C10.8512 22.232 10.5 21.3841 10.5 20.5001V15.5001Z" stroke="white" stroke-width="1.5" stroke-linecap="round" stroke-linejoin="round"/>
<path d="M16.3333 15.5001L20.5 18.0001L16.3333 20.5001V15.5001Z" stroke="white" stroke-width="1.5" stroke-linecap="round" stroke-linejoin="round"/>
</svg>
